<svg width="152" height="32" viewBox="0 0 152 32" fill="none" xmlns="http://www.w3.org/2000/svg">
<rect width="32" height="32" rx="4.92308" fill="url(#paint0_linear_299_645)"/>
<path d="M16.3362 26.9306L5.06921 15.7495L12.1521 17.7269L16.3362 26.9306Z" fill="#015F43"/>
<path d="M21.4936 25.3934L17.7905 21.7186L20.6308 11.5386L21.4936 25.3934Z" fill="#015F43"/>
<path d="M26.8481 5.22775L21.4934 25.3934L20.6306 11.5386L26.8481 5.22775Z" fill="#00B27E"/>
<path d="M26.8481 5.22775L20.6306 11.5386L21.4934 25.3934L21.0474 11.747L26.8481 5.22775Z" fill="#00D2A3"/>
<path d="M20.6304 11.5386L10.383 14.3114L6.73401 10.6624L20.6304 11.5386Z" fill="#00865F"/>
<path d="M26.8479 5.22775L20.6304 11.5386L6.73401 10.6624L26.8479 5.22775Z" fill="#00D2A3"/>
<path d="M20.3803 10.9551L6.73401 10.6624L20.6304 11.5386L26.8479 5.22775L20.3803 10.9551Z" fill="#7AFFE0"/>
<path d="M16.3363 26.9307L12.1521 17.727L20.6305 11.5386L17.7902 21.7186L16.3363 26.9307Z" fill="#00865F"/>
<path d="M16.3363 26.9307L12.1521 17.727L20.6305 11.5386L17.7902 21.7186L16.3363 26.9307Z" fill="#00865F"/>
<path d="M16.3363 26.9307L12.6106 17.8728L20.6305 11.5386L17.7902 21.7186L16.3363 26.9307Z" fill="#00865F"/>
<path d="M20.6305 11.5386L12.1521 17.727L5.06921 15.7495L10.383 14.3114L20.6305 11.5386Z" fill="#00B27E"/>
<path d="M12.0479 17.2684L5.06921 15.7495L12.1521 17.727L20.6305 11.5386L12.0479 17.2684Z" fill="#00D2A3"/>
<path d="M51.627 8.78125V23H48.707V8.78125H51.627ZM56.002 8.78125V11.0762H44.4004V8.78125H56.002ZM59.625 14.7383V23H56.8125V12.4336H59.459L59.625 14.7383ZM62.8086 12.3652L62.7598 14.9727C62.623 14.9531 62.457 14.9368 62.2617 14.9238C62.0729 14.9043 61.9004 14.8945 61.7441 14.8945C61.347 14.8945 61.002 14.9466 60.709 15.0508C60.4225 15.1484 60.1816 15.2949 59.9863 15.4902C59.7975 15.6855 59.6543 15.9232 59.5566 16.2031C59.4655 16.4831 59.4134 16.8021 59.4004 17.1602L58.834 16.9844C58.834 16.3008 58.9023 15.6725 59.0391 15.0996C59.1758 14.5202 59.3743 14.0156 59.6348 13.5859C59.9017 13.1562 60.2272 12.8242 60.6113 12.5898C60.9954 12.3555 61.4349 12.2383 61.9297 12.2383C62.0859 12.2383 62.2454 12.2513 62.4082 12.2773C62.571 12.2969 62.7044 12.3262 62.8086 12.3652ZM67.1055 12.4336V23H64.2832V12.4336H67.1055ZM64.1074 9.67969C64.1074 9.26953 64.2507 8.93099 64.5371 8.66406C64.8236 8.39714 65.2077 8.26367 65.6895 8.26367C66.1647 8.26367 66.5456 8.39714 66.832 8.66406C67.125 8.93099 67.2715 9.26953 67.2715 9.67969C67.2715 10.0898 67.125 10.4284 66.832 10.6953C66.5456 10.9622 66.1647 11.0957 65.6895 11.0957C65.2077 11.0957 64.8236 10.9622 64.5371 10.6953C64.2507 10.4284 64.1074 10.0898 64.1074 9.67969ZM72.3984 8V23H69.5762V8H72.3984ZM77.4668 8V23H74.6543V8H77.4668ZM77.0664 17.3457H76.2949C76.3014 16.61 76.3991 15.9329 76.5879 15.3145C76.7767 14.6895 77.0469 14.1491 77.3984 13.6934C77.75 13.2311 78.1699 12.873 78.6582 12.6191C79.153 12.3652 79.6999 12.2383 80.2988 12.2383C80.8197 12.2383 81.2917 12.3132 81.7148 12.4629C82.1445 12.6061 82.5124 12.8405 82.8184 13.166C83.1309 13.485 83.3717 13.9049 83.541 14.4258C83.7103 14.9466 83.7949 15.5781 83.7949 16.3203V23H80.9629V16.3008C80.9629 15.832 80.8945 15.4642 80.7578 15.1973C80.6276 14.9238 80.4355 14.7318 80.1816 14.6211C79.9342 14.5039 79.6283 14.4453 79.2637 14.4453C78.86 14.4453 78.515 14.5202 78.2285 14.6699C77.9486 14.8197 77.724 15.028 77.5547 15.2949C77.3854 15.5553 77.2617 15.8613 77.1836 16.2129C77.1055 16.5645 77.0664 16.9421 77.0664 17.3457ZM91.6367 20.6172V15.9102C91.6367 15.5716 91.5814 15.2819 91.4707 15.041C91.36 14.7936 91.1875 14.6016 90.9531 14.4648C90.7253 14.3281 90.429 14.2598 90.0645 14.2598C89.752 14.2598 89.4818 14.3151 89.2539 14.4258C89.026 14.5299 88.8503 14.6829 88.7266 14.8848C88.6029 15.0801 88.541 15.3112 88.541 15.5781H85.7285C85.7285 15.1289 85.8327 14.7025 86.041 14.2988C86.2493 13.8952 86.5521 13.5404 86.9492 13.2344C87.3464 12.9219 87.8184 12.6777 88.3652 12.502C88.9186 12.3262 89.5371 12.2383 90.2207 12.2383C91.041 12.2383 91.7702 12.375 92.4082 12.6484C93.0462 12.9219 93.5475 13.332 93.9121 13.8789C94.2832 14.4258 94.4688 15.1094 94.4688 15.9297V20.4512C94.4688 21.0306 94.5046 21.5059 94.5762 21.877C94.6478 22.2415 94.752 22.5605 94.8887 22.834V23H92.0469C91.9102 22.7135 91.806 22.3555 91.7344 21.9258C91.6693 21.4896 91.6367 21.0534 91.6367 20.6172ZM92.0078 16.5645L92.0273 18.1562H90.4551C90.084 18.1562 89.7617 18.1986 89.4883 18.2832C89.2148 18.3678 88.9902 18.4883 88.8145 18.6445C88.6387 18.7943 88.5085 18.9701 88.4238 19.1719C88.3457 19.3737 88.3066 19.5951 88.3066 19.8359C88.3066 20.0768 88.362 20.2949 88.4727 20.4902C88.5833 20.679 88.7428 20.8288 88.9512 20.9395C89.1595 21.0436 89.4036 21.0957 89.6836 21.0957C90.1068 21.0957 90.4746 21.0111 90.7871 20.8418C91.0996 20.6725 91.3405 20.4642 91.5098 20.2168C91.6855 19.9694 91.7767 19.735 91.7832 19.5137L92.5254 20.7051C92.4212 20.972 92.278 21.2487 92.0957 21.5352C91.9199 21.8216 91.6953 22.0918 91.4219 22.3457C91.1484 22.5931 90.8197 22.7982 90.4355 22.9609C90.0514 23.1172 89.5957 23.1953 89.0684 23.1953C88.3978 23.1953 87.7891 23.0618 87.2422 22.7949C86.7018 22.5215 86.2721 22.1471 85.9531 21.6719C85.6406 21.1901 85.4844 20.6432 85.4844 20.0312C85.4844 19.4779 85.5885 18.9863 85.7969 18.5566C86.0052 18.127 86.3112 17.7656 86.7148 17.4727C87.125 17.1732 87.6361 16.9486 88.248 16.7988C88.86 16.6426 89.5697 16.5645 90.377 16.5645H92.0078Z" fill="#E1E1E6"/>
<path d="M104.908 8.78125V23H101.988V8.78125H104.908ZM114.166 12.4336H116.715V22.6484C116.715 23.612 116.5 24.429 116.07 25.0996C115.647 25.7767 115.055 26.2878 114.293 26.6328C113.531 26.9844 112.646 27.1602 111.637 27.1602C111.194 27.1602 110.725 27.1016 110.23 26.9844C109.742 26.8672 109.273 26.6849 108.824 26.4375C108.382 26.1901 108.01 25.8776 107.711 25.5L108.951 23.8398C109.277 24.2174 109.654 24.5104 110.084 24.7188C110.514 24.9336 110.989 25.041 111.51 25.041C112.018 25.041 112.447 24.9466 112.799 24.7578C113.15 24.5755 113.421 24.3053 113.609 23.9473C113.798 23.5957 113.893 23.1693 113.893 22.668V14.875L114.166 12.4336ZM107.057 17.8438V17.6387C107.057 16.8314 107.154 16.099 107.35 15.4414C107.551 14.7773 107.835 14.2077 108.199 13.7324C108.57 13.2572 109.02 12.8893 109.547 12.6289C110.074 12.3685 110.67 12.2383 111.334 12.2383C112.037 12.2383 112.626 12.3685 113.102 12.6289C113.577 12.8893 113.967 13.2604 114.273 13.7422C114.579 14.2174 114.817 14.7806 114.986 15.4316C115.162 16.0762 115.299 16.7826 115.396 17.5508V18C115.299 18.7357 115.152 19.4193 114.957 20.0508C114.762 20.6823 114.505 21.2357 114.186 21.7109C113.867 22.1797 113.469 22.5443 112.994 22.8047C112.525 23.0651 111.965 23.1953 111.314 23.1953C110.663 23.1953 110.074 23.0618 109.547 22.7949C109.026 22.528 108.58 22.1536 108.209 21.6719C107.838 21.1901 107.551 20.6237 107.35 19.9727C107.154 19.3216 107.057 18.612 107.057 17.8438ZM109.869 17.6387V17.8438C109.869 18.2799 109.911 18.6868 109.996 19.0645C110.081 19.4421 110.211 19.7773 110.387 20.0703C110.569 20.3568 110.794 20.5814 111.061 20.7441C111.334 20.9004 111.656 20.9785 112.027 20.9785C112.542 20.9785 112.962 20.8711 113.287 20.6562C113.613 20.4349 113.857 20.1322 114.02 19.748C114.182 19.3639 114.277 18.9212 114.303 18.4199V17.1406C114.29 16.7305 114.234 16.3626 114.137 16.0371C114.039 15.7051 113.902 15.4219 113.727 15.1875C113.551 14.9531 113.323 14.7708 113.043 14.6406C112.763 14.5104 112.431 14.4453 112.047 14.4453C111.676 14.4453 111.354 14.5299 111.08 14.6992C110.813 14.862 110.589 15.0866 110.406 15.373C110.23 15.6595 110.097 15.998 110.006 16.3887C109.915 16.7728 109.869 17.1895 109.869 17.6387ZM121.656 14.6895V23H118.844V12.4336H121.48L121.656 14.6895ZM121.246 17.3457H120.484C120.484 16.5645 120.585 15.8613 120.787 15.2363C120.989 14.6048 121.272 14.0677 121.637 13.625C122.001 13.1758 122.434 12.834 122.936 12.5996C123.443 12.3587 124.01 12.2383 124.635 12.2383C125.13 12.2383 125.582 12.3099 125.992 12.4531C126.402 12.5964 126.754 12.8242 127.047 13.1367C127.346 13.4492 127.574 13.8626 127.73 14.377C127.893 14.8913 127.975 15.5195 127.975 16.2617V23H125.143V16.252C125.143 15.7832 125.077 15.4186 124.947 15.1582C124.817 14.8978 124.625 14.7155 124.371 14.6113C124.124 14.5007 123.818 14.4453 123.453 14.4453C123.076 14.4453 122.747 14.5202 122.467 14.6699C122.193 14.8197 121.965 15.028 121.783 15.2949C121.607 15.5553 121.474 15.8613 121.383 16.2129C121.292 16.5645 121.246 16.9421 121.246 17.3457ZM133.082 12.4336V23H130.26V12.4336H133.082ZM130.084 9.67969C130.084 9.26953 130.227 8.93099 130.514 8.66406C130.8 8.39714 131.184 8.26367 131.666 8.26367C132.141 8.26367 132.522 8.39714 132.809 8.66406C133.102 8.93099 133.248 9.26953 133.248 9.67969C133.248 10.0898 133.102 10.4284 132.809 10.6953C132.522 10.9622 132.141 11.0957 131.666 11.0957C131.184 11.0957 130.8 10.9622 130.514 10.6953C130.227 10.4284 130.084 10.0898 130.084 9.67969ZM140.582 12.4336V14.4258H134.43V12.4336H140.582ZM135.953 9.82617H138.766V19.8164C138.766 20.1224 138.805 20.3568 138.883 20.5195C138.967 20.6823 139.091 20.7962 139.254 20.8613C139.417 20.9199 139.622 20.9492 139.869 20.9492C140.045 20.9492 140.201 20.9427 140.338 20.9297C140.481 20.9102 140.602 20.8906 140.699 20.8711L140.709 22.9414C140.468 23.0195 140.208 23.0814 139.928 23.127C139.648 23.1725 139.339 23.1953 139 23.1953C138.382 23.1953 137.841 23.0944 137.379 22.8926C136.923 22.6842 136.572 22.3522 136.324 21.8965C136.077 21.4408 135.953 20.8418 135.953 20.0996V9.82617ZM147.047 23.1953C146.227 23.1953 145.491 23.0651 144.84 22.8047C144.189 22.5378 143.635 22.1699 143.18 21.7012C142.73 21.2324 142.385 20.6888 142.145 20.0703C141.904 19.4453 141.783 18.7812 141.783 18.0781V17.6875C141.783 16.8867 141.897 16.1543 142.125 15.4902C142.353 14.8262 142.678 14.25 143.102 13.7617C143.531 13.2734 144.052 12.8991 144.664 12.6387C145.276 12.3717 145.966 12.2383 146.734 12.2383C147.483 12.2383 148.147 12.362 148.727 12.6094C149.306 12.8568 149.791 13.2083 150.182 13.6641C150.579 14.1198 150.878 14.6667 151.08 15.3047C151.282 15.9362 151.383 16.6393 151.383 17.4141V18.5859H142.984V16.7109H148.619V16.4961C148.619 16.1055 148.548 15.7572 148.404 15.4512C148.268 15.1387 148.059 14.8913 147.779 14.709C147.499 14.5267 147.141 14.4355 146.705 14.4355C146.334 14.4355 146.015 14.5169 145.748 14.6797C145.481 14.8424 145.263 15.0703 145.094 15.3633C144.931 15.6562 144.807 16.0013 144.723 16.3984C144.645 16.7891 144.605 17.2188 144.605 17.6875V18.0781C144.605 18.5013 144.664 18.8919 144.781 19.25C144.905 19.6081 145.077 19.9173 145.299 20.1777C145.527 20.4382 145.8 20.64 146.119 20.7832C146.445 20.9264 146.812 20.998 147.223 20.998C147.73 20.998 148.202 20.9004 148.639 20.7051C149.081 20.5033 149.462 20.2005 149.781 19.7969L151.148 21.2812C150.927 21.6003 150.624 21.9062 150.24 22.1992C149.863 22.4922 149.407 22.7331 148.873 22.9219C148.339 23.1042 147.73 23.1953 147.047 23.1953Z" fill="#00B37E"/>
<defs>
<linearGradient id="paint0_linear_299_645" x1="31.6757" y1="-0.395606" x2="7.56625" y2="36.8922" gradientUnits="userSpaceOnUse">
<stop stop-color="#00291D"/>
<stop offset="1" stop-color="#121214"/>
</linearGradient>
</defs>
</svg>
